<?xml version="1.0" encoding="ISO-8859-1"?>
<!DOCTYPE svg PUBLIC "-//W3C//DTD SVG 1.1//EN" "http://www.w3.org/Graphics/SVG/1.1/DTD/svg11.dtd">
<svg xmlns="http://www.w3.org/2000/svg" version="1.1"
width="500px" height="750px">
<title>testgraphics.svg</title>

<path d="
M 0.00 0.00
L 0.00 750.00
L 500.00 750.00
L 500.00 0.00
z"
fill="#FFFFFF" stroke="#FFFFFF"/>
<text transform="translate(250.00,30.00)"
font-family="Verdana" font-size="16" fill="#000000"
text-anchor="middle" dominant-baseline="text-after-edge">
CPlotter v1.5 Demo
</text>
<polygon points="
1.00 749.00
499.00 749.00
499.00 1.00
1.00 1.00
" fill="none" stroke="#0000FF" stroke-width="2"/>
<text transform="translate(20.00,80.00)"
font-family="Verdana" font-size="12" fill="#000000"
text-anchor="start" dominant-baseline="middle">
Markers:
</text>
<path d="
M 116.00 76.00
L 124.00 84.00
M 116.00 84.00
L 124.00 76.00
"
fill="none" stroke="#000000"/>
<path d="
M 136.00 80.00
L 144.00 80.00
M 140.00 76.00
L 140.00 84.00
"
fill="none" stroke="#000000"/>
<path d="
M 156.00 80.00
L 164.00 80.00
M 160.00 76.00
L 160.00 84.00
M 156.00 76.00
L 164.00 84.00
M 156.00 84.00
L 164.00 76.00
"
fill="none" stroke="#000000"/>
<circle cx="180" cy="80" r="4"
fill="none" stroke="#000000"/>
<path d="
M 180.00 84.00
L 180.00 80.00
"
fill="none" stroke="#000000"/>
<path d="
M 196.00 76.00
L 204.00 76.00
L 204.00 84.00
L 196.00 84.00
z"
fill="none" stroke="#000000"/>
<path d="
M 200.00 84.00
L 200.00 80.00
"
fill="none" stroke="#000000"/>
<path d="
M 220.00 84.00
L 224.00 80.00
L 220.00 76.00
L 216.00 80.00
L 220.00 84.00
z"
fill="none" stroke="#000000"/>
<path d="
M 220.00 84.00
L 220.00 80.00
"
fill="none" stroke="#000000"/>
<path d="
M 240.00 76.00
L 244.00 84.00
L 236.00 84.00
z"
fill="none" stroke="#000000"/>
<path d="
M 240.00 84.00
L 240.00 80.00
"
fill="none" stroke="#000000"/>
<path d="
M 256.00 76.00
L 264.00 76.00
L 260.00 84.00
z"
fill="none" stroke="#000000"/>
<path d="
M 260.00 84.00
L 260.00 80.00
"
fill="none" stroke="#000000"/>
<path d="
M 304.00 74.00
L 316.00 86.00
M 304.00 86.00
L 316.00 74.00
"
fill="none" stroke="#FF0000" stroke-width="2"/>
<path d="
M 324.00 80.00
L 336.00 80.00
M 330.00 74.00
L 330.00 86.00
"
fill="none" stroke="#FF0000" stroke-width="2"/>
<path d="
M 344.00 80.00
L 356.00 80.00
M 350.00 74.00
L 350.00 86.00
M 344.00 74.00
L 356.00 86.00
M 344.00 86.00
L 356.00 74.00
"
fill="none" stroke="#FF0000" stroke-width="2"/>
<circle cx="370" cy="80" r="6"
fill="none" stroke="#FF0000" stroke-width="2"/>
<path d="
M 370.00 86.00
L 370.00 80.00
"
fill="none" stroke="#FF0000" stroke-width="2"/>
<path d="
M 384.00 74.00
L 396.00 74.00
L 396.00 86.00
L 384.00 86.00
z"
fill="none" stroke="#FF0000" stroke-width="2"/>
<path d="
M 390.00 86.00
L 390.00 80.00
"
fill="none" stroke="#FF0000" stroke-width="2"/>
<path d="
M 410.00 86.00
L 416.00 80.00
L 410.00 74.00
L 404.00 80.00
L 410.00 86.00
z"
fill="none" stroke="#FF0000" stroke-width="2"/>
<path d="
M 410.00 86.00
L 410.00 80.00
"
fill="none" stroke="#FF0000" stroke-width="2"/>
<path d="
M 430.00 74.00
L 436.00 86.00
L 424.00 86.00
z"
fill="none" stroke="#FF0000" stroke-width="2"/>
<path d="
M 430.00 86.00
L 430.00 80.00
"
fill="none" stroke="#FF0000" stroke-width="2"/>
<path d="
M 444.00 74.00
L 456.00 74.00
L 450.00 86.00
z"
fill="none" stroke="#FF0000" stroke-width="2"/>
<path d="
M 450.00 86.00
L 450.00 80.00
"
fill="none" stroke="#FF0000" stroke-width="2"/>
<text transform="translate(20.00,150.00)"
font-family="Verdana" font-size="12" fill="#000000"
text-anchor="start" dominant-baseline="middle">
Polylines:
</text>
<polyline points="
120.00 175.00
160.00 125.00
200.00 175.00
240.00 125.00
" fill="none" stroke="#0000FF"/>
<path d="
M 118.00 173.00
L 122.00 173.00
L 122.00 177.00
L 118.00 177.00
z"
fill="none" stroke="#0000FF"/>
<path d="
M 120.00 177.00
L 120.00 175.00
"
fill="none" stroke="#0000FF"/>
<path d="
M 158.00 123.00
L 162.00 123.00
L 162.00 127.00
L 158.00 127.00
z"
fill="none" stroke="#0000FF"/>
<path d="
M 160.00 127.00
L 160.00 125.00
"
fill="none" stroke="#0000FF"/>
<path d="
M 198.00 173.00
L 202.00 173.00
L 202.00 177.00
L 198.00 177.00
z"
fill="none" stroke="#0000FF"/>
<path d="
M 200.00 177.00
L 200.00 175.00
"
fill="none" stroke="#0000FF"/>
<path d="
M 238.00 123.00
L 242.00 123.00
L 242.00 127.00
L 238.00 127.00
z"
fill="none" stroke="#0000FF"/>
<path d="
M 240.00 127.00
L 240.00 125.00
"
fill="none" stroke="#0000FF"/>
<line x1="270.00" y1="175.00" x2="370.00" y2="175.00"
stroke="#009900" stroke-dasharray="4 2"/>
<line x1="270.00" y1="159.00" x2="370.00" y2="159.00"
stroke="#009900" stroke-dasharray="1 2"/>
<line x1="270.00" y1="143.00" x2="370.00" y2="143.00"
stroke="#009900" stroke-dasharray="4 2 1 2"/>
<line x1="270.00" y1="127.00" x2="370.00" y2="127.00"
stroke="#009900" stroke-dasharray="4 2 1 2 1 2"/>
<polyline points="
395.00 175.00
395.00 125.00
445.00 125.00
445.00 175.00
415.00 175.00
415.00 145.00
425.00 145.00
425.00 165.00
" fill="none" stroke="#CCCC00" stroke-width="5"/>
<text transform="translate(20.00,240.00)"
font-family="Verdana" font-size="12" fill="#000000"
text-anchor="start" dominant-baseline="middle">
Polygons:
</text>
<polygon points="
120.00 260.00
180.00 260.00
150.00 210.00
" fill="none" stroke="#000000" stroke-width="3"/>
<polygon points="
220.00 240.00
240.00 220.00
320.00 210.00
300.00 250.00
260.00 270.00
" fill="none" stroke="#E53333"/>
<polygon points="
390.00 240.00
360.00 220.00
430.00 210.00
460.00 250.00
370.00 270.00
" fill="#7F7FFF" stroke="#7F7FFF"/>
<text transform="translate(20.00,330.00)"
font-family="Verdana" font-size="12" fill="#000000"
text-anchor="start" dominant-baseline="middle">
Anchored texts:
</text>
<text transform="translate(170.00,360.00)"
font-family="Verdana" font-size="10" fill="#000000"
text-anchor="start" dominant-baseline="text-after-edge">
Textstring
</text>
<path d="
M 165.00 360.00
L 175.00 360.00
M 170.00 355.00
L 170.00 365.00
"
fill="none" stroke="#FF0000"/>
<text transform="translate(290.00,360.00)"
font-family="Verdana" font-size="10" fill="#000000"
text-anchor="middle" dominant-baseline="text-after-edge">
Textstring
</text>
<path d="
M 285.00 360.00
L 295.00 360.00
M 290.00 355.00
L 290.00 365.00
"
fill="none" stroke="#FF0000"/>
<text transform="translate(410.00,360.00)"
font-family="Verdana" font-size="10" fill="#000000"
text-anchor="end" dominant-baseline="text-after-edge">
Textstring
</text>
<path d="
M 405.00 360.00
L 415.00 360.00
M 410.00 355.00
L 410.00 365.00
"
fill="none" stroke="#FF0000"/>
<text transform="translate(170.00,330.00)"
font-family="Verdana" font-size="10" fill="#000000"
text-anchor="start" dominant-baseline="middle">
Textstring
</text>
<path d="
M 165.00 330.00
L 175.00 330.00
M 170.00 325.00
L 170.00 335.00
"
fill="none" stroke="#FF0000"/>
<text transform="translate(290.00,330.00)"
font-family="Verdana" font-size="10" fill="#000000"
text-anchor="middle" dominant-baseline="middle">
Textstring
</text>
<path d="
M 285.00 330.00
L 295.00 330.00
M 290.00 325.00
L 290.00 335.00
"
fill="none" stroke="#FF0000"/>
<text transform="translate(410.00,330.00)"
font-family="Verdana" font-size="10" fill="#000000"
text-anchor="end" dominant-baseline="middle">
Textstring
</text>
<path d="
M 405.00 330.00
L 415.00 330.00
M 410.00 325.00
L 410.00 335.00
"
fill="none" stroke="#FF0000"/>
<text transform="translate(170.00,300.00)"
font-family="Verdana" font-size="10" fill="#000000"
text-anchor="start" dominant-baseline="text-before-edge">
Textstring
</text>
<path d="
M 165.00 300.00
L 175.00 300.00
M 170.00 295.00
L 170.00 305.00
"
fill="none" stroke="#FF0000"/>
<text transform="translate(290.00,300.00)"
font-family="Verdana" font-size="10" fill="#000000"
text-anchor="middle" dominant-baseline="text-before-edge">
Textstring
</text>
<path d="
M 285.00 300.00
L 295.00 300.00
M 290.00 295.00
L 290.00 305.00
"
fill="none" stroke="#FF0000"/>
<text transform="translate(410.00,300.00)"
font-family="Verdana" font-size="10" fill="#000000"
text-anchor="end" dominant-baseline="text-before-edge">
Textstring
</text>
<path d="
M 405.00 300.00
L 415.00 300.00
M 410.00 295.00
L 410.00 305.00
"
fill="none" stroke="#FF0000"/>
<text transform="translate(20.00,440.00)"
font-family="Verdana" font-size="12" fill="#000000"
text-anchor="start" dominant-baseline="middle">
Rotated,
</text>
<text transform="translate(20.00,454.00)"
font-family="Verdana" font-size="12" fill="#000000"
text-anchor="start" dominant-baseline="middle">
colored texts:
</text>
<text transform="translate(260.00,440.00) rotate(-15.00)"
font-family="Verdana" font-size="11" fill="#00FF00"
text-anchor="start" dominant-baseline="middle">
Textstring
</text>
<text transform="translate(260.00,440.00) rotate(-45.00)"
font-family="Verdana" font-size="11" fill="#17E700"
text-anchor="start" dominant-baseline="middle">
Textstring
</text>
<text transform="translate(260.00,440.00) rotate(-75.00)"
font-family="Verdana" font-size="11" fill="#2ED000"
text-anchor="start" dominant-baseline="middle">
Textstring
</text>
<text transform="translate(260.00,440.00) rotate(-105.00)"
font-family="Verdana" font-size="11" fill="#45B900"
text-anchor="start" dominant-baseline="middle">
Textstring
</text>
<text transform="translate(260.00,440.00) rotate(-135.00)"
font-family="Verdana" font-size="11" fill="#5CA200"
text-anchor="start" dominant-baseline="middle">
Textstring
</text>
<text transform="translate(260.00,440.00) rotate(-165.00)"
font-family="Verdana" font-size="11" fill="#738B00"
text-anchor="start" dominant-baseline="middle">
Textstring
</text>
<text transform="translate(260.00,440.00) rotate(-195.00)"
font-family="Verdana" font-size="11" fill="#8B7300"
text-anchor="start" dominant-baseline="middle">
Textstring
</text>
<text transform="translate(260.00,440.00) rotate(-225.00)"
font-family="Verdana" font-size="11" fill="#A25C00"
text-anchor="start" dominant-baseline="middle">
Textstring
</text>
<text transform="translate(260.00,440.00) rotate(-255.00)"
font-family="Verdana" font-size="11" fill="#B94500"
text-anchor="start" dominant-baseline="middle">
Textstring
</text>
<text transform="translate(260.00,440.00) rotate(-285.00)"
font-family="Verdana" font-size="11" fill="#D02E00"
text-anchor="start" dominant-baseline="middle">
Textstring
</text>
<text transform="translate(260.00,440.00) rotate(-315.00)"
font-family="Verdana" font-size="11" fill="#E71700"
text-anchor="start" dominant-baseline="middle">
Textstring
</text>
<text transform="translate(260.00,440.00) rotate(-345.00)"
font-family="Verdana" font-size="11" fill="#FE0000"
text-anchor="start" dominant-baseline="middle">
Textstring
</text>
<text transform="translate(20.00,540.00)"
font-family="Verdana" font-size="12" fill="#000000"
text-anchor="start" dominant-baseline="middle">
Circular
</text>
<text transform="translate(20.00,554.00)"
font-family="Verdana" font-size="12" fill="#000000"
text-anchor="start" dominant-baseline="middle">
arcs:
</text>
<path d="
M 99.38 605.00
A 70.00 70.00 0 0 1 195.00 509.38"
fill="none" stroke="#00FFFF"/>
<path d="
M 124.88 609.12
A 52.50 52.50 0 0 1 199.12 534.88"
fill="none" stroke="#00DFFF"/>
<path d="
M 144.31 608.10
A 39.38 39.38 0 1 1 198.10 554.31"
fill="none" stroke="#00BFFF"/>
<path d="
M 158.36 604.53
A 29.53 29.53 0 1 1 194.52 568.36"
fill="none" stroke="#009FFF"/>
<path d="
M 168.00 600.15
A 22.15 22.15 0 1 1 190.15 578.00"
fill="none" stroke="#007FFF"/>
<path d="
M 174.30 596.05
A 16.61 16.61 0 1 1 186.05 584.30"
fill="none" stroke="#005FFF"/>
<path d="
M 178.23 592.79
A 12.46 12.46 0 1 1 182.79 588.23"
fill="none" stroke="#003FFF"/>
<path d="
M 180.61 590.61
A 9.34 9.34 0 1 1 180.61 590.61"
fill="none" stroke="#001FFF"/>
<path d="
M 302.14 608.30
A 50.00 50.00 0 0 1 226.70 595.00
L 270.00 570.00
L 302.14 608.30
z"
fill="#B24CCC" stroke="#B24CCC"/>
<path d="
M 227.57 590.08
A 50.00 50.00 0 1 1 303.01 603.38
L 270.87 565.08
L 227.57 590.08
z"
fill="#CC6633" stroke="#CC6633"/>
<circle cx="410" cy="560" r="70"
fill="#00FF00" stroke="#00FF00"/>
<circle cx="412" cy="562" r="52"
fill="#00CC00" stroke="#00CC00"/>
<circle cx="414" cy="564" r="39"
fill="#00A300" stroke="#00A300"/>
<circle cx="416" cy="566" r="29"
fill="#008200" stroke="#008200"/>
<circle cx="418" cy="568" r="22"
fill="#006800" stroke="#006800"/>
<circle cx="420" cy="570" r="16"
fill="#005300" stroke="#005300"/>
<circle cx="422" cy="572" r="12"
fill="#004200" stroke="#004200"/>
<circle cx="424" cy="574" r="9"
fill="#003500" stroke="#003500"/>
<text transform="translate(20.00,690.00)"
font-family="Verdana" font-size="12" fill="#000000"
text-anchor="start" dominant-baseline="middle">
Cubic
</text>
<text transform="translate(20.00,704.00)"
font-family="Verdana" font-size="12" fill="#000000"
text-anchor="start" dominant-baseline="middle">
Bézier curves:
</text>
<polyline points="
160.00 690.00
190.00 640.00
230.00 630.00
220.00 690.00
" fill="none" stroke="#999999" stroke-dasharray="4 2"/>
<path d="
M 158.50 688.50
L 161.50 688.50
L 161.50 691.50
L 158.50 691.50
z"
fill="none" stroke="#999999"/>
<path d="
M 160.00 691.50
L 160.00 690.00
"
fill="none" stroke="#999999"/>
<circle cx="190" cy="640" r="1"
fill="none" stroke="#999999"/>
<path d="
M 190.00 641.50
L 190.00 640.00
"
fill="none" stroke="#999999"/>
<circle cx="230" cy="630" r="1"
fill="none" stroke="#999999"/>
<path d="
M 230.00 631.50
L 230.00 630.00
"
fill="none" stroke="#999999"/>
<path d="
M 218.50 688.50
L 221.50 688.50
L 221.50 691.50
L 218.50 691.50
z"
fill="none" stroke="#999999"/>
<path d="
M 220.00 691.50
L 220.00 690.00
"
fill="none" stroke="#999999"/>
<path d="
M 160.00 690.00
C 190.00 640.00 230.00 630.00 220.00 690.00"
fill="none" stroke="#FF0000" stroke-width="2"/>
<polyline points="
220.00 690.00
213.00 730.00
280.00 660.00
340.00 690.00
" fill="none" stroke="#999999" stroke-dasharray="4 2"/>
<path d="
M 218.50 688.50
L 221.50 688.50
L 221.50 691.50
L 218.50 691.50
z"
fill="none" stroke="#999999"/>
<path d="
M 220.00 691.50
L 220.00 690.00
"
fill="none" stroke="#999999"/>
<circle cx="213" cy="730" r="1"
fill="none" stroke="#999999"/>
<path d="
M 213.00 731.50
L 213.00 730.00
"
fill="none" stroke="#999999"/>
<circle cx="280" cy="660" r="1"
fill="none" stroke="#999999"/>
<path d="
M 280.00 661.50
L 280.00 660.00
"
fill="none" stroke="#999999"/>
<path d="
M 338.50 688.50
L 341.50 688.50
L 341.50 691.50
L 338.50 691.50
z"
fill="none" stroke="#999999"/>
<path d="
M 340.00 691.50
L 340.00 690.00
"
fill="none" stroke="#999999"/>
<path d="
M 220.00 690.00
C 213.00 730.00 280.00 660.00 340.00 690.00"
fill="none" stroke="#FF0000" stroke-width="2"/>
<polyline points="
340.00 690.00
430.00 735.00
300.00 730.00
420.00 680.00
" fill="none" stroke="#999999" stroke-dasharray="4 2"/>
<path d="
M 338.50 688.50
L 341.50 688.50
L 341.50 691.50
L 338.50 691.50
z"
fill="none" stroke="#999999"/>
<path d="
M 340.00 691.50
L 340.00 690.00
"
fill="none" stroke="#999999"/>
<circle cx="430" cy="735" r="1"
fill="none" stroke="#999999"/>
<path d="
M 430.00 736.50
L 430.00 735.00
"
fill="none" stroke="#999999"/>
<circle cx="300" cy="730" r="1"
fill="none" stroke="#999999"/>
<path d="
M 300.00 731.50
L 300.00 730.00
"
fill="none" stroke="#999999"/>
<path d="
M 418.50 678.50
L 421.50 678.50
L 421.50 681.50
L 418.50 681.50
z"
fill="none" stroke="#999999"/>
<path d="
M 420.00 681.50
L 420.00 680.00
"
fill="none" stroke="#999999"/>
<path d="
M 340.00 690.00
C 430.00 735.00 300.00 730.00 420.00 680.00"
fill="none" stroke="#FF0000" stroke-width="2"/>

</svg>
